<svg height="512" viewBox="0 0 58 58" width="512" xmlns="http://www.w3.org/2000/svg"><g id="Page-1" fill="none" fill-rule="evenodd"><g id="047---Any-Solvent-Except-Tetrachlorethylene" fill-rule="nonzero"><circle id="Oval" cx="29" cy="29" fill="#3d324c" r="29"/><path id="Shape" d="m47.72 12.43c-2.2104164-2.49523601-4.8960858-4.52478618-7.9-5.97-11.5824263-5.56450144-25.4969191-1.44685291-32.18593238 9.5246273-6.68901328 10.9714802-3.97586667 25.2265485 6.27584168 32.9737256 10.2517083 7.747177 24.7059568 6.4654439 33.4344537-2.9648062 8.7284968-9.4302502 8.8908907-23.9403076.375637-33.5635467z" fill="#5d4c72"/><path id="Shape" d="m39.82 6.46c-12.16 2.82-28.07 10.75-33.72 32.58-4.19526279-9.5766384-1.98968443-20.7523848 5.5293007-28.0171694 7.5189852-7.2647846 18.7639508-9.08484846 28.1906993-4.5628306z" fill="#7d6599"/><g fill="#fff"><path id="Shape" d="m29 55c-14.3594035 0-26-11.6405965-26-26s11.6405965-26 26-26 26 11.6405965 26 26c-.0159821 14.3527783-11.6472217 25.9840179-26 26zm0-50c-13.254834 0-24 10.745166-24 24s10.745166 24 24 24 24-10.745166 24-24c-.0154295-13.2484376-10.7515624-23.98457048-24-24z"/><path id="Shape" d="m21 45c-1.6568542 0-3-1.3431458-3-3v-26c0-1.6568542 1.3431458-3 3-3h9c5.5228475 0 10 4.4771525 10 10s-4.4771525 10-10 10h-6v9c0 1.6568542-1.3431458 3-3 3zm3-18h6c2.209139 0 4-1.790861 4-4s-1.790861-4-4-4h-6z"/></g></g></g></svg>